<?xml version="1.0" encoding="UTF-8"?><svg id="Layer_2" xmlns="http://www.w3.org/2000/svg" viewBox="0 0 234.02 234"><defs><style>.cls-1{fill:#000;stroke-width:0px;}</style></defs><g id="Layer_1-2"><path class="cls-1" d="M153.02,152.99h-72v-72h72v72ZM153.02,161.99h-72v72h72v-72ZM234.02,71.99h-72v9h72v-9ZM153.02,161.99v72s9,0,9,0v-72s-9,0-9,0ZM153.02,80.99v72s9,0,9,0v-72s-9,0-9,0ZM72.02,161.99v72s9,0,9,0v-72s-9,0-9,0ZM234.02,162h-72v72l72-72ZM72,0H0v72h72V0ZM162,0v72h72L162,0ZM81,72.01V0s-9,0-9,0v72s9,0,9,0ZM153,0h-72v72h72V0ZM162,72V0s-9,0-9,0v72s9,0,9,0ZM72.02,162H.02v72h72v-72ZM234.02,81h-72s0,36,0,36h36l36-36ZM198.02,117h-36v36s72,0,72,0l-36-36ZM234.02,153h-72v9h72v-9Z"/></g></svg>