<?xml version="1.0" encoding="UTF-8"?><svg id="Layer_2" xmlns="http://www.w3.org/2000/svg" viewBox="0 0 234 234"><defs><style>.cls-1{fill:#000;stroke-width:0px;}</style></defs><g id="Layer_1-2"><path class="cls-1" d="M153.01,0v72h-72V0h72ZM.01,0v72h72V0H.01ZM72.01,81v72h9v-72h-9ZM72.01,72H.01s0,9,0,9h72s0-9,0-9ZM153.01,72h-72s0,9,0,9h72s0-9,0-9ZM72,153.01v-72H0l72,72ZM153,81h-72v72h72v-72ZM234,81h-72v72h72v-72ZM153,81v72s9,0,9,0v-72s-9,0-9,0ZM153,162h-72v72h72v-72ZM153,153h-72v9h72v-9Z"/></g></svg>