<?xml version="1.0" encoding="UTF-8"?><svg id="Layer_2" xmlns="http://www.w3.org/2000/svg" viewBox="0 0 234.02 234"><defs><style>.cls-1{fill:#000;stroke-width:0px;}</style></defs><g id="Layer_1-2"><path class="cls-1" d="M234.02,162h-72v-9h72v9ZM81,152.99h72v-72h-72v72ZM153,233.99v-72h-72v72M0,80.99h72v-9H0v9ZM81,233.99v-72s-9,0-9,0v72M72,80.99v72s9,0,9,0v-72s-9,0-9,0ZM162,233.99v-72s-9,0-9,0v72M72.02,153v-72H.02l72,72ZM162.02,72.01h72V0h-72v72ZM162.02,72.01V0s-9,0-9,0v72s9,0,9,0ZM81.02,72h72V0h-72v72ZM81.02,72V0s-9,0-9,0v72s9,0,9,0ZM72.02,234v-72H.02v72M.02,72h72V0H.02v72ZM162.02,81v72h72l-72-72ZM162.02,234l72-72h-72v72M153.02,81v72s9,0,9,0v-72s-9,0-9,0Z"/></g></svg>