<?xml version="1.0" encoding="UTF-8"?><svg id="Layer_2" xmlns="http://www.w3.org/2000/svg" viewBox="0 0 234 234"><defs><style>.cls-1{fill:#000;stroke-width:0px;}</style></defs><g id="Layer_1-2"><path class="cls-1" d="M153,234h-72v-72h72v72ZM153,81h-72v72h72v-72ZM153,0h-72v72h72V0ZM234,0h-72v72h72V0ZM162,81v72h72l-72-72ZM0,72h72V0L0,72ZM72,234v-72H0l72,72ZM234,162h-72v72l72-72ZM36,117h36v-36s-72,0-72,0l36,36ZM0,153h72s0-36,0-36h-36L0,153ZM72,72H0v9h72v-9ZM72,153H0v9h72v-9ZM72,81v72s9,0,9,0v-72s-9,0-9,0ZM72,162v72s9,0,9,0v-72s-9,0-9,0ZM153,162v72s9,0,9,0v-72s-9,0-9,0ZM72,0v72s9,0,9,0V0s-9,0-9,0ZM153,0v72s9,0,9,0V0s-9,0-9,0ZM153,81v72s9,0,9,0v-72s-9,0-9,0ZM234,153h-72v9h72v-9Z"/></g></svg>