<?xml version="1.0" encoding="UTF-8"?><svg id="Layer_2" xmlns="http://www.w3.org/2000/svg" viewBox="0 0 234.19 234"><defs><style>.cls-1{fill:#000;stroke-width:0px;}</style></defs><g id="Layer_1-2"><path class="cls-1" d="M153.19,152.99h-72v-72h72v72ZM153.19,161.99h-72v72h72v-72ZM234.19,71.99h-72v9h72v-9ZM153.19,161.99v72s9,0,9,0v-72s-9,0-9,0ZM153.19,80.99v72s9,0,9,0v-72s-9,0-9,0ZM72.19,161.99v72s9,0,9,0v-72s-9,0-9,0ZM234.19,162h-72v72l72-72ZM162.17,0v72h72L162.17,0ZM81.17,72.01V0s-9,0-9,0v72s9,0,9,0ZM153.17,0h-72v72h72V0ZM162.17,72V0s-9,0-9,0v72s9,0,9,0ZM234.19,81h-72s0,36,0,36h36l36-36ZM198.19,117h-36v36s72,0,72,0l-36-36ZM234.19,153h-72v9h72v-9ZM72.17,81v72s9,0,9,0v-72s-9,0-9,0ZM.17,72h72V0L.17,72ZM72,72.48H0v9h72v-9ZM72.19,162H.19v72h72v-72ZM72.19,153v-72H.19l72,72Z"/></g></svg>