<?xml version="1.0" encoding="UTF-8"?><svg id="Layer_2" xmlns="http://www.w3.org/2000/svg" viewBox="0 0 234 306"><defs><style>.cls-1{fill:#000;stroke-width:0px;}</style></defs><g id="Layer_1-2"><path class="cls-1" d="M72,144H0v-72h72v72ZM153,72h-72v72h72v-72ZM153,153h-72v72h72v-72ZM234,153h-72v72h72v-72ZM234,234h-72v72h72v-72ZM153,234h-72v72h72v-72ZM72,306v-72H0l72,72ZM162,72v72h72l-72-72ZM234,144h-72v9h72v-9ZM153,72v72s9,0,9,0v-72s-9,0-9,0ZM234,225h-72v9h72v-9ZM72,225H0v9h72v-9ZM153,153v72s9,0,9,0v-72s-9,0-9,0ZM153,234v72s9,0,9,0v-72s-9,0-9,0ZM72,234v72s9,0,9,0v-72s-9,0-9,0ZM72,72v72s9,0,9,0v-72s-9,0-9,0ZM0,225h72v-72L0,225ZM72,153v72s9,0,9,0v-72s-9,0-9,0ZM153.94,0h-72v72h72V0Z"/></g></svg>