<?xml version="1.0" encoding="UTF-8"?><svg id="Layer_2" xmlns="http://www.w3.org/2000/svg" viewBox="0 0 234.02 234"><defs><style>.cls-1{fill:#000;stroke-width:0px;}</style></defs><g id="Layer_1-2"><path class="cls-1" d="M72.02,72H.02V0h72v72ZM153.02,0h-72v72h72V0ZM153.02,81h-72v72h72v-72ZM153.02,162h-72v72h72v-72ZM72.02,162H.02v72h72v-72ZM234.02,72h-72v9h72v-9ZM0,153h72v-72L0,153ZM234.02,162h-72v72l72-72ZM162.02,0v72h72L162.02,0ZM234.02,153h-72v9h72v-9ZM72.02,153H.02v9h72v-9ZM72.02,0v72s9,0,9,0V0s-9,0-9,0ZM153.02,0v72s9,0,9,0V0s-9,0-9,0ZM153.02,162v72s9,0,9,0v-72s-9,0-9,0ZM153.02,81v72s9,0,9,0v-72s-9,0-9,0ZM72.02,162v72s9,0,9,0v-72s-9,0-9,0ZM72.02,81v72s9,0,9,0v-72s-9,0-9,0ZM153.02,0h-72v72h72V0ZM153.02,81h-72v72h72v-72ZM153.02,162h-72v72h72v-72ZM72.02,162H.02v72h72v-72ZM234.02,72h-72v9h72v-9ZM0,153h72v-72L0,153ZM234.02,162h-72v72l72-72ZM162.02,0v72h72L162.02,0ZM234.02,153h-72v9h72v-9ZM72.02,153H.02v9h72v-9ZM72.02,0v72s9,0,9,0V0s-9,0-9,0ZM153.02,0v72s9,0,9,0V0s-9,0-9,0ZM153.02,162v72s9,0,9,0v-72s-9,0-9,0ZM153.02,81v72s9,0,9,0v-72s-9,0-9,0ZM72.02,162v72s9,0,9,0v-72s-9,0-9,0ZM72.02,81v72s9,0,9,0v-72s-9,0-9,0ZM198.02,117h-36s0,36,0,36h72s-36-36-36-36ZM234.02,81h-72v36s36,0,36,0l36-36Z"/></g></svg>