<?xml version="1.0" encoding="UTF-8"?><svg id="Layer_2" xmlns="http://www.w3.org/2000/svg" viewBox="0 0 234.38 234.38"><defs><style>.cls-1{fill:#000;stroke-width:0px;}</style></defs><g id="Layer_1-2"><path class="cls-1" d="M153,153.38h-72v-72h72v72ZM72,0H0v72h72V0ZM72.38,234.38v-72H.38v72h72ZM153.38,234.38v-72h-72v72h72ZM234.38,234.38v-72h-72v72h72ZM153,0h-72v72h72V0ZM72,153v-72H0l72,72ZM153.38,153.38h-72s0,9,0,9h72s0-9,0-9ZM72,81.38v72s9,0,9,0v-72s-9,0-9,0ZM81.38,234.38v-72h-9v72h9ZM162.38,234.38v-72h-9v72h9ZM153,72h-72v9h72v-9ZM72,72H0v9h72v-9Z"/></g></svg>