<?xml version="1.0" encoding="UTF-8"?><svg id="Layer_2" xmlns="http://www.w3.org/2000/svg" viewBox="0 0 234 234"><defs><style>.cls-1{fill:#000;stroke-width:0px;}</style></defs><g id="Layer_1-2"><path class="cls-1" d="M72,234H0v-72h72v72ZM153,162h-72v72h72v-72ZM72,0H0v72h72V0ZM153,0h-72v72h72V0ZM153,81h-72v72h72v-72ZM234,81h-72v72h72v-72ZM162,0v72h72L162,0ZM234,162h-72v72l72-72ZM72,81v72s9,0,9,0v-72s-9,0-9,0ZM72,0v72s9,0,9,0V0s-9,0-9,0ZM153,0v72s9,0,9,0V0s-9,0-9,0ZM72,162v72s9,0,9,0v-72s-9,0-9,0ZM153,162v72s9,0,9,0v-72s-9,0-9,0ZM72,72H0v9h72v-9ZM234,72h-72v9h72v-9ZM234,153h-72v9h72v-9ZM72,153H0v9h72v-9ZM36,117h36v-36s-72,0-72,0l36,36ZM0,153h72s0-36,0-36h-36L0,153Z"/></g></svg>