<?xml version="1.0" encoding="UTF-8"?><svg id="Layer_2" xmlns="http://www.w3.org/2000/svg" viewBox="0 0 234 234"><defs><style>.cls-1{fill:#000;stroke-width:0px;}</style></defs><g id="Layer_1-2"><path class="cls-1" d="M234,72h-72V0h72v72ZM153,0h-72v72h72V0ZM72,81H0v72h72v-72ZM153,81h-72v72h72v-72ZM234,162h-72v72h72v-72ZM162,81v72h72l-72-72ZM0,72h72V0L0,72ZM72,234v-72H0l72,72ZM153,162h-72v72l72-72ZM162,72V0s-9,0-9,0v72s9,0,9,0ZM81,72V0s-9,0-9,0v72s9,0,9,0ZM162,153v-72s-9,0-9,0v72s9,0,9,0ZM81,234v-72s-9,0-9,0v72s9,0,9,0ZM72,72H0v9h72v-9ZM72,153H0v9h72v-9ZM234,153h-72v9h72v-9ZM153,153h-72v9h72v-9Z"/></g></svg>