<?xml version="1.0" encoding="UTF-8"?><svg id="Layer_2" xmlns="http://www.w3.org/2000/svg" viewBox="0 0 234.02 315"><defs><style>.cls-1{fill:#000;stroke-width:0px;}</style></defs><g id="Layer_1-2"><path class="cls-1" d="M81,80.99h72v72h-72v-72ZM81,233.99h72v-72h-72v72ZM0,80.99h72v-9H0v9ZM162.02,80.99v72h72l-72-72ZM162,161.99h72v-9h-72v9ZM72,161.99v72s9,0,9,0v-72s-9,0-9,0ZM72,80.99v72s9,0,9,0v-72s-9,0-9,0ZM153,161.99v72s9,0,9,0v-72s-9,0-9,0ZM153,80.99v72s9,0,9,0v-72s-9,0-9,0ZM.01,234h72v-72H.01v72ZM72.01,153v-72H.01l72,72ZM162.02,72.01h72V0h-72v72ZM.02,72h72V0L.02,72ZM162.02,72.01V0s-9,0-9,0v72s9,0,9,0ZM81.02,72h72V0h-72v72ZM81.02,72V0s-9,0-9,0v72s9,0,9,0ZM80.99,314.99h72v-72h-72v72ZM161.99,242.99h72v-9h-72v9ZM71.99,242.99v72s9,0,9,0v-72s-9,0-9,0ZM152.99,242.99v72s9,0,9,0v-72s-9,0-9,0ZM0,315h72v-72H0v72ZM234,243h-72v72l72-72ZM198,198h-36v-36s72,0,72,0l-36,36ZM198,198h-36v36s72,0,72,0l-36-36Z"/></g></svg>