<?xml version="1.0" encoding="UTF-8"?><svg id="Layer_2" xmlns="http://www.w3.org/2000/svg" viewBox="0 0 234.38 315"><defs><style>.cls-1{fill:#000;stroke-width:0px;}</style></defs><g id="Layer_1-2"><path class="cls-1" d="M162.38,153v-72h72v72h-72ZM153.38,153v-72h-72v72h72ZM72.38,315v-72H.38v72h72ZM153.38,315v-72h-72v72h72ZM234.38,315v-72h-72v72h72ZM153.38,234v-72h-72v72h72ZM.38,153h72v-72L.38,153ZM72.38,234v-72H.38l72,72ZM153.38,234h-72s0,9,0,9h72s0-9,0-9ZM72,153H0s0,9,0,9h72s0-9,0-9ZM81.38,315v-72h-9v72h9ZM162.38,153v-72h-9v72h9ZM162.38,315v-72h-9v72h9ZM81.38,234v-72h-9v72h9ZM81.38,153v-72h-9v72h9ZM72.38,72H.38V0h72v72ZM234.38,0h-72v72h72V0Z"/></g></svg>