<?xml version="1.0" encoding="UTF-8"?><svg id="Layer_2" xmlns="http://www.w3.org/2000/svg" viewBox="0 0 234 234"><defs><style>.cls-1{fill:#000;stroke-width:0px;}</style></defs><g id="Layer_1-2"><path class="cls-1" d="M162,0h72v72h-72V0ZM162,153h72v-72h-72v72ZM0,234h72v-72H0v72ZM81,153h72v-72h-72v72ZM234,162h-72v72l72-72ZM153,234v-72h-72l72,72ZM72,81v72s9,0,9,0v-72s-9,0-9,0ZM153,162v72s9,0,9,0v-72s-9,0-9,0ZM0,162h72v-9H0v9ZM162,81h72v-9h-72v9ZM81,162h72v-9h-72v9ZM162,162h72v-9h-72v9ZM0,153h72v-72L0,153Z"/></g></svg>