<?xml version="1.0" encoding="UTF-8"?><svg id="Layer_2" xmlns="http://www.w3.org/2000/svg" viewBox="0 0 234 396"><defs><style>.cls-1{fill:#000;stroke-width:0px;}</style></defs><g id="Layer_1-2"><path class="cls-1" d="M162.46,162.38v72s-9,0-9,0v-72s9,0,9,0ZM234,81h-72v72h72v-72ZM72,396H0v-72h72v72ZM72,315H0v-72h72v72ZM234,72h-72V0h72v72ZM153,234h-72v-72h72v72ZM153,153h-72v-72h72v72ZM234,315h-72v-72h72v72ZM72,324H0v-9h72v9ZM153,162h-72v-9h72v9ZM72,243H0v-9h72v9ZM153,243h-72v-9h72v9ZM234,81h-72v-9h72v9ZM234,162h-72v-9h72v9ZM81.46,162.57v72s-9,0-9,0v-72s9,0,9,0ZM81,243h72v72l-72-72ZM161.69,243.57v72s-9,0-9,0v-72s9,0,9,0ZM72,162v72H0l72-72ZM234,162h-72v72l72-72Z"/></g></svg>