<?xml version="1.0" encoding="UTF-8"?><svg id="Layer_2" xmlns="http://www.w3.org/2000/svg" viewBox="0 0 234 234.02"><defs><style>.cls-1{fill:#000;stroke-width:0px;}</style></defs><g id="Layer_1-2"><path class="cls-1" d="M72,162v72H0v-72h72ZM0,81v72h72v-72H0ZM81,81v72h72v-72h-72ZM162,81v72h72v-72h-72ZM162,162v72h72v-72h-72ZM72,0v72h9V0h-9ZM153,234.02v-72h-72l72,72ZM162,0v72h72L162,0ZM0,72h72V0L0,72ZM153,0v72h9V0h-9ZM153,162v72h9v-72h-9ZM0,162h72s0-9,0-9H0s0,9,0,9ZM0,81h72s0-9,0-9H0s0,9,0,9ZM162,81h72s0-9,0-9h-72s0,9,0,9ZM81,81h72s0-9,0-9h-72s0,9,0,9ZM162,162h72s0-9,0-9h-72s0,9,0,9ZM81,162h72s0-9,0-9h-72s0,9,0,9ZM117,36.02v36h36s0-72,0-72l-36,36ZM81,.02v72s36,0,36,0v-36L81,.02Z"/></g></svg>