<?xml version="1.0" encoding="UTF-8"?><svg id="Layer_2" xmlns="http://www.w3.org/2000/svg" viewBox="0 0 234.01 234.02"><defs><style>.cls-1{fill:#000;stroke-width:0px;}</style></defs><g id="Layer_1-2"><path class="cls-1" d="M72,162v72H0v-72h72ZM0,81v72h72v-72H0ZM81,81v72h72v-72h-72ZM162,81v72h72v-72h-72ZM72,0v72h9V0h-9ZM153,234.02v-72h-72l72,72ZM0,72h72V0L0,72ZM153,162v72h9v-72h-9ZM0,162h72s0-9,0-9H0s0,9,0,9ZM0,81h72s0-9,0-9H0s0,9,0,9ZM162,81h72s0-9,0-9h-72s0,9,0,9ZM81,81h72s0-9,0-9h-72s0,9,0,9ZM162,162h72s0-9,0-9h-72s0,9,0,9ZM81,162h72s0-9,0-9h-72s0,9,0,9ZM162.01.01v72h72V.01h-72ZM81.01.01v72h72L81.01.01ZM234.01,162.01h-72v72l72-72Z"/></g></svg>