<?xml version="1.0" encoding="UTF-8"?><svg id="Layer_2" xmlns="http://www.w3.org/2000/svg" viewBox="0 0 234.01 315"><defs><style>.cls-1{fill:#000;stroke-width:0px;}</style></defs><g id="Layer_1-2"><path class="cls-1" d="M72,242.98v72H0v-72h72ZM0,161.98v72h72v-72H0ZM81,161.98v72h72v-72h-72ZM162,161.98v72h72v-72h-72ZM72,80.98v72h9v-72h-9ZM153,315v-72h-72l72,72ZM0,152.98h72v-72L0,152.98ZM153,242.98v72h9v-72h-9ZM0,242.98h72s0-9,0-9H0s0,9,0,9ZM0,161.98h72s0-9,0-9H0s0,9,0,9ZM162,161.98h72s0-9,0-9h-72s0,9,0,9ZM81,161.98h72s0-9,0-9h-72s0,9,0,9ZM162,242.98h72s0-9,0-9h-72s0,9,0,9ZM81,242.98h72s0-9,0-9h-72s0,9,0,9ZM162.01,80.99v72h72v-72h-72ZM81.01,80.99v72h72l-72-72ZM234.01,242.99h-72v72l72-72ZM153.01,72h-72V0h72v72ZM72.01,0H.01v72h72V0ZM72.01,0v72s9,0,9,0V0s-9,0-9,0Z"/></g></svg>