<?xml version="1.0" encoding="UTF-8"?><svg id="Layer_2" xmlns="http://www.w3.org/2000/svg" viewBox="0 0 234 396"><defs><style>.cls-1{fill:#000;stroke-width:0px;}</style></defs><g id="Layer_1-2"><path class="cls-1" d="M72,234H0v-72h72v72ZM153,81h-72v72h72v-72ZM234,162h-72v72h72v-72ZM153,243h-72v72h72v-72ZM72,315v-72H0l72,72ZM162,81v72h72l-72-72ZM234,243h-72v72l72-72ZM0,153h72v-72L0,153ZM153,81v72s9,0,9,0v-72s-9,0-9,0ZM153,243v72s9,0,9,0v-72s-9,0-9,0ZM72,243v72s9,0,9,0v-72s-9,0-9,0ZM72,81v72s9,0,9,0v-72s-9,0-9,0ZM234,234h-72v9h72v-9ZM234,153h-72v9h72v-9ZM72,234H0v9h72v-9ZM72,153H0v9h72v-9ZM153,162h-72v72h72v-72ZM153,234h-72v9h72v-9ZM153,153h-72v9h72v-9ZM72,324v72s9,0,9,0v-72s-9,0-9,0ZM153,0v72s9,0,9,0V0s-9,0-9,0ZM72,324H0v72h72v-72ZM234,0h-72v72h72V0ZM153,315h-72v9h72v-9ZM153,72h-72v9h72v-9ZM153,324h-72v72l72-72ZM81,72h72V0l-72,72Z"/></g></svg>