<?xml version="1.0" encoding="UTF-8"?><svg id="Layer_2" xmlns="http://www.w3.org/2000/svg" viewBox="0 0 234.02 233.99"><defs><style>.cls-1{fill:#000;stroke-width:0px;}</style></defs><g id="Layer_1-2"><path class="cls-1" d="M81,81.01h72v72h-72v-72ZM81,72.01h72V.01h-72v72ZM0,162.01h72v-9H0v9ZM234.02,81.01h-72v72l72-72ZM162,81.01h72v-9h-72v9ZM81,72.01V.01s-9,0-9,0v72s9,0,9,0ZM81,153.01v-72s-9,0-9,0v72s9,0,9,0ZM162,72.01V.01s-9,0-9,0v72s9,0,9,0ZM162,153.01v-72s-9,0-9,0v72s9,0,9,0ZM.01,72h72V0H.01v72ZM.01,153h72v-72L.01,153ZM162.01,0v72h72L162.01,0ZM0,233.99h72v-72H0v72ZM81.02,161.99h72v-9h-72v9ZM162.02,233.99h72v-72h-72v72ZM153.02,233.99v-72h-72l72,72ZM153.02,161.99v72s9,0,9,0v-72s-9,0-9,0Z"/></g></svg>