<?xml version="1.0" encoding="UTF-8"?><svg id="Layer_2" xmlns="http://www.w3.org/2000/svg" viewBox="0 0 234.04 315"><defs><style>.cls-1{fill:#000;stroke-width:0px;}</style></defs><g id="Layer_1-2"><path class="cls-1" d="M81.02,161.99h72v72h-72v-72ZM81.02,314.99h72v-72h-72v72ZM.02,161.99h72v-9H.02v9ZM162.04,161.99v72h72l-72-72ZM162.02,242.99h72v-9h-72v9ZM72.02,242.99v72s9,0,9,0v-72s-9,0-9,0ZM72.02,161.99v72s9,0,9,0v-72s-9,0-9,0ZM153.02,242.99v72s9,0,9,0v-72s-9,0-9,0ZM153.02,161.99v72s9,0,9,0v-72s-9,0-9,0ZM.03,315h72v-72H.03v72ZM72.03,234v-72H.03l72,72ZM234.03,243h-72v72l72-72ZM162.04,153.01h72v-72h-72v72ZM.04,153h72v-72L.04,153ZM162.04,153.01v-72s-9,0-9,0v72s9,0,9,0ZM81.04,153h72v-72h-72v72ZM81.04,153v-72s-9,0-9,0v72s9,0,9,0ZM72,72H0V0h72v72ZM234,0h-72v72h72V0ZM153,81h-72v72h72v-72ZM81,0v72s36,0,36,0v-36L81,0ZM117,36v36h36S153,0,153,0l-36,36ZM72,0v72s9,0,9,0V0s-9,0-9,0ZM153,0v72s9,0,9,0V0s-9,0-9,0ZM153,72h-72v9h72v-9Z"/></g></svg>