<?xml version="1.0" encoding="UTF-8"?><svg id="Layer_2" xmlns="http://www.w3.org/2000/svg" viewBox="0 0 234 234.01"><defs><style>.cls-1{fill:#000;stroke-width:0px;}</style></defs><g id="Layer_1-2"><path class="cls-1" d="M153.03,80.99v72h-72v-72h72ZM.03,80.99v72h72v-72H.03ZM153,81v72h9v-72h-9ZM153.03,162.01h-72v72l72-72ZM72.03,161.99v72h9v-72h-9ZM72.03,152.99H.03s0,9,0,9h72s0-9,0-9ZM153.03,152.99h-72s0,9,0,9h72s0-9,0-9ZM0,0v72h72V0H0ZM162,81v72h72l-72-72ZM72.01,234v-72H.01l72,72ZM81,0v72h72V0h-72ZM162,162v72h72v-72h-72ZM234,153h-72v9h72v-9ZM153,72h-72v9h72v-9ZM72,72H0v9h72v-9Z"/></g></svg>