<?xml version="1.0" encoding="UTF-8"?><svg id="Layer_2" xmlns="http://www.w3.org/2000/svg" viewBox="0 0 234 234.01"><defs><style>.cls-1{fill:#000;stroke-width:0px;}</style></defs><g id="Layer_1-2"><path class="cls-1" d="M152.97,80.99v72h-72v-72h72ZM161.97,80.99v72h72v-72h-72ZM72,.38v72h9V.38h-9ZM152.97,234.01v-72h-72l72,72ZM152.97,161.99v72h9v-72h-9ZM161.97,161.99h72s0-9,0-9h-72s0,9,0,9ZM80.97,161.99h72s0-9,0-9h-72s0,9,0,9ZM162,0v72h72V0h-72ZM81,0v72h72L81,0ZM233.99,162h-72v72l72-72ZM0,0v72h72V0H0ZM81,81h72v-9h-72v9ZM162,81h72v-9h-72v9Z"/></g></svg>