<?xml version="1.0" encoding="UTF-8"?><svg id="Layer_2" xmlns="http://www.w3.org/2000/svg" viewBox="0 0 234 234.02"><defs><style>.cls-1{fill:#000;stroke-width:0px;}</style></defs><g id="Layer_1-2"><path class="cls-1" d="M162,72.02V.02h72v72h-72ZM234,153.02v-72h-72v72h72ZM153,153.02v-72h-72v72h72ZM72,153.02v-72H0v72h72ZM72,72.02V.02H0v72h72ZM162,234.02v-72h-9v72h9ZM81,0v72h72L81,0ZM72,234.02v-72H0l72,72ZM234,162.02h-72v72l72-72ZM81,234.02v-72h-9v72h9ZM81,72.02V.02h-9v72h9ZM234,72.02h-72s0,9,0,9h72s0-9,0-9ZM234,153.02h-72s0,9,0,9h72s0-9,0-9ZM72,153.02H0s0,9,0,9h72s0-9,0-9ZM153,153.02h-72s0,9,0,9h72s0-9,0-9ZM72,72.02H0s0,9,0,9h72s0-9,0-9ZM153,72.02h-72s0,9,0,9h72s0-9,0-9ZM153,234.02v-72s-36,0-36,0v36l36,36ZM117,198.02v-36h-36s0,72,0,72l36-36Z"/></g></svg>