<?xml version="1.0" encoding="UTF-8"?><svg id="Layer_2" xmlns="http://www.w3.org/2000/svg" viewBox="0 0 234 234"><defs><style>.cls-1{fill:#000;stroke-width:0px;}</style></defs><g id="Layer_1-2"><path class="cls-1" d="M234,234h-72v-72h72v72ZM234,0h-72v72h72V0ZM72,0H0v72h72V0ZM72,162H0v72h72v-72ZM153,81h-72v72h72v-72ZM153,72h-72v9h72v-9ZM234,153h-72v9h72v-9ZM72,153H0v9h72v-9ZM72,81v72s9,0,9,0v-72s-9,0-9,0ZM153,81v72s9,0,9,0v-72s-9,0-9,0ZM162,81v72h72l-72-72ZM0,153h72v-72L0,153ZM153,0v72s9,0,9,0V0s-9,0-9,0ZM72,0v72s9,0,9,0V0s-9,0-9,0ZM117,36v36h36S153,0,153,0l-36,36ZM81,0v72s36,0,36,0v-36L81,0Z"/></g></svg>