<?xml version="1.0" encoding="UTF-8"?><svg id="Layer_2" xmlns="http://www.w3.org/2000/svg" viewBox="0 0 234.02 315"><defs><style>.cls-1{fill:#000;stroke-width:0px;}</style></defs><g id="Layer_1-2"><path class="cls-1" d="M153.02,233.99h-72v-72h72v72ZM153.02,242.99h-72v72h72v-72ZM234.02,152.99h-72v9h72v-9ZM0,233.99h72v-72L0,233.99ZM72.02,233.99H.02v9h72v-9ZM153.02,242.99v72s9,0,9,0v-72s-9,0-9,0ZM153.02,161.99v72s9,0,9,0v-72s-9,0-9,0ZM72.02,242.99v72s9,0,9,0v-72s-9,0-9,0ZM72.02,161.99v72s9,0,9,0v-72s-9,0-9,0ZM234.01,243h-72v72h72v-72ZM234.01,162h-72v72l72-72ZM72.01,315v-72H.01l72,72ZM72,81.01H0v72h72v-72ZM162,81v72h72l-72-72ZM81,153.01v-72s-9,0-9,0v72s9,0,9,0ZM153,81h-72v72h72v-72ZM162,153v-72s-9,0-9,0v72s9,0,9,0ZM72,72H0V0h72v72ZM234,0h-72v72h72V0ZM81,0v72s36,0,36,0v-36L81,0ZM117,36v36h36S153,0,153,0l-36,36ZM72,0v72s9,0,9,0V0s-9,0-9,0ZM153,0v72s9,0,9,0V0s-9,0-9,0ZM153,72h-72v9h72v-9Z"/></g></svg>